<?xml version="1.0" encoding="iso-8859-1"?>
<!-- Generator: Adobe Illustrator 19.0.0, SVG Export Plug-In . SVG Version: 6.00 Build 0)  -->
<svg version="1.1" id="Layer_1" xmlns="http://www.w3.org/2000/svg" xmlns:xlink="http://www.w3.org/1999/xlink" x="0px" y="0px"
	 viewBox="0 0 512 512" style="enable-background:new 0 0 512 512;" xml:space="preserve">
<g>
	<g>
		<circle cx="256.303" cy="76.367" r="37.112"/>
	</g>
</g>
<g>
	<g>
		<path d="M410.572,0c-21.623,0-39.007,17.566-39.007,39.007c0,1.948,0.148,3.862,0.424,5.734c-7.456,0.388-13.894,4.8-17.08,11.141
			l-31.472,62.662L256.9,126.64l-37.074-12.513c-11.481-3.932-23.974,2.187-27.907,13.667
			c-61.56,179.724-24.924,77.66-128.145,355.224c-4.136,11.122,1.528,23.492,12.65,27.629c11.124,4.136,23.494-1.529,27.63-12.65
			l74.987-202.093l78.433,12.102l-31.995,96.026c-3.751,11.259,2.335,23.427,13.593,27.178c11.259,3.75,23.427-2.334,27.178-13.593
			l40.041-120.173c2-6.005,1.252-12.585-2.045-17.987c-3.298-5.402-8.808-9.076-15.064-10.041l-106.553-16.44l65.828-0.616
			l28.149-82.18l-21.997-2.419l84.513-10.282c6.709-0.817,12.605-4.932,15.667-11.025c39.346-78.338,36.27-72.16,36.8-73.373
			c5.615,3.135,12.081,4.93,18.969,4.932c0.004,0,0.01,0,0.015,0c21.543,0,39.007-17.464,39.007-39.007
			C449.579,17.464,432.114,0,410.572,0z"/>
	</g>
</g>
<g>
</g>
<g>
</g>
<g>
</g>
<g>
</g>
<g>
</g>
<g>
</g>
<g>
</g>
<g>
</g>
<g>
</g>
<g>
</g>
<g>
</g>
<g>
</g>
<g>
</g>
<g>
</g>
<g>
</g>
</svg>
