<?xml version="1.0" encoding="iso-8859-1"?>
<!-- Generator: Adobe Illustrator 18.1.1, SVG Export Plug-In . SVG Version: 6.00 Build 0)  -->
<svg version="1.1" id="Capa_1" xmlns="http://www.w3.org/2000/svg" xmlns:xlink="http://www.w3.org/1999/xlink" x="0px" y="0px"
	 viewBox="0 0 60.449 60.449" style="enable-background:new 0 0 60.449 60.449;" xml:space="preserve">
<g>
	<g>
		<g>
			<path style="fill:#010002;" d="M22.506,23.467c0.016,0.064,0.009,0.068-0.008,0.041c-0.019,0.079-0.035,0.163-0.05,0.264
				c0.027-0.175,0.056-0.244,0.081-0.26c-0.006-0.015-0.013-0.039-0.02-0.055C22.508,23.46,22.506,23.464,22.506,23.467z"/>
			<path style="fill:#010002;" d="M50.031,25.398C45.79,19.087,39.99,14.794,33.018,12.174c-3.389-0.881-7.825,1.329-7.917,1.437
				c-0.227,0.076-0.455,0.174-0.686,0.316c-0.72,0.446-1.173,1.003-1.44,1.609c-1.076,0.637-2.197,1.192-3.397,1.582
				c-1.291,0.419-2.589,0.47-3.284,0.062c0.041,0.023-0.155-0.132-0.276-0.486c-0.221-0.651-0.16-1.235-0.11-1.949
				c0.149-2.176,1.365-4.385,2.393-6.244c1.856-3.357-3.279-6.355-5.134-3c-2.507,4.537-5.383,11.617-0.962,15.974
				c3.415,3.363,8.506,1.978,12.572-0.159c0.199,0.313,0.413,0.619,0.659,0.909c0.27,0.316,0.518,0.643,0.77,0.968
				c1.339,2.29,1.389,8.149,1.389,8.149s-4.666,15.936-4.28,24.537c0.235,5.25,8.412,5.273,8.174,0
				c-0.295-6.594,0.544-12.914,2.685-19.059c0.386,0.174,0.785,0.311,1.195,0.408c0.373,6.896,1.438,13.709,3.449,20.354
				c1.52,5.033,9.41,2.888,7.881-2.172c-2.293-7.597-3.271-15.269-3.321-23.188c-0.002-0.604-0.378-2.367-0.462-2.75
				c-0.422-1.92-1.018-3.753-1.762-5.514c1.377,1.313,2.634,2.784,3.742,4.437C47.026,31.563,52.178,28.589,50.031,25.398z"/>
			<circle style="fill:#010002;" cx="24.8" cy="6.091" r="6.091"/>
		</g>
	</g>
</g>
<g>
</g>
<g>
</g>
<g>
</g>
<g>
</g>
<g>
</g>
<g>
</g>
<g>
</g>
<g>
</g>
<g>
</g>
<g>
</g>
<g>
</g>
<g>
</g>
<g>
</g>
<g>
</g>
<g>
</g>
</svg>
